<svg height="326" viewBox="0 0 220 326" width="220" xmlns="http://www.w3.org/2000/svg"><title>movie</title><path d="m0 0h220v326h-220z" fill="#eceff4"/><g transform="translate(50.122 103.9)"><path d="m75.207 3v10.09h-10.172v-10.09h-40.69v10.09h-10.173v-10.09h-10.172v90.81h10.172v-10.09h10.173v10.09h40.69v-10.09h10.172v10.09h10.173v-90.81zm-50.862 70.63h-10.173v-10.09h10.173zm0-20.18h-10.173v-10.09h10.173zm0-20.18h-10.173v-10.09h10.173zm50.862 40.36h-10.172v-10.09h10.172zm0-20.18h-10.172v-10.09h10.172zm0-20.18h-10.172v-10.09h10.172z" transform="translate(14.86 11.145)"/><path d="m0 0h119.1v119.1h-119.1z" fill="none"/></g></svg>